<svg xmlns="http://www.w3.org/2000/svg" version="1.1" xmlns:xlink="http://www.w3.org/1999/xlink" xmlns:svgjs="http://svgjs.com/svgjs" width="1000" height="1000"><rect width="1000" height="1000" rx="500" ry="500" fill="#242424"></rect><g transform="matrix(2,0,0,2,2.7109479904174805,2.7109479904174805)"><svg xmlns="http://www.w3.org/2000/svg" version="1.1" xmlns:xlink="http://www.w3.org/1999/xlink" xmlns:svgjs="http://svgjs.com/svgjs" width="500" height="500"><svg xmlns="http://www.w3.org/2000/svg" xmlns:xlink="http://www.w3.org/1999/xlink" width="500" zoomAndPan="magnify" viewBox="0 0 375 374.999991" height="500" preserveAspectRatio="xMidYMid meet" version="1.0"><defs><clipPath id="887f6b4dcd"><path d="M 30 134 L 360.671875 134 L 360.671875 360.671875 L 30 360.671875 Z M 30 134 " clip-rule="nonzero"></path></clipPath><clipPath id="676ad3a778"><path d="M 10.421875 10.421875 L 341 10.421875 L 341 237 L 10.421875 237 Z M 10.421875 10.421875 " clip-rule="nonzero"></path></clipPath></defs><g clip-path="url(#887f6b4dcd)"><path fill="#fdfcfc" d="M 353.023438 134.691406 C 357.894531 150.765625 360.511719 167.808594 360.511719 185.464844 C 360.511719 282.074219 282.074219 360.511719 185.464844 360.511719 C 118.078125 360.511719 59.535156 322.355469 30.28125 266.492188 L 253.988281 266.492188 C 262.792969 266.492188 270.363281 265.621094 276.675781 263.882812 C 282.996094 262.144531 288.175781 259.652344 292.234375 256.410156 C 296.289062 253.164062 299.246094 249.167969 301.101562 244.417969 C 302.953125 239.667969 303.882812 234.332031 303.882812 228.421875 C 303.882812 217.765625 300.167969 209.792969 292.761719 204.515625 C 285.339844 199.238281 274.507812 196.605469 260.25 196.605469 L 196.964844 196.605469 C 192.792969 196.605469 189.695312 196 187.667969 194.777344 C 185.640625 193.558594 184.621094 191.453125 184.621094 188.429688 C 184.621094 185.417969 185.640625 183.332031 187.667969 182.171875 C 189.695312 181.011719 192.792969 180.433594 196.964844 180.433594 L 303.882812 180.433594 L 303.882812 150.179688 L 103.199219 149.808594 L 103.199219 134.683594 L 353.023438 134.683594 Z M 353.023438 134.691406 " fill-opacity="1" fill-rule="evenodd"></path></g><g clip-path="url(#676ad3a778)"><path fill="#fcfcfd" d="M 18.019531 236.597656 C 13.082031 220.414062 10.421875 203.25 10.421875 185.472656 C 10.421875 88.859375 88.859375 10.421875 185.472656 10.421875 C 252.855469 10.421875 311.398438 48.578125 340.652344 104.445312 L 67.042969 104.445312 L 67.042969 220.757812 L 103.207031 220.757812 L 103.207031 178.160156 L 150.652344 178.160156 C 150.125 180.757812 149.851562 183.488281 149.851562 186.351562 C 149.851562 191.335938 150.722656 195.886719 152.460938 199.992188 C 154.199219 204.113281 156.867188 207.613281 160.460938 210.511719 C 164.050781 213.410156 168.570312 215.664062 174.023438 217.289062 C 179.476562 218.914062 185.964844 219.722656 193.496094 219.722656 L 256.78125 219.722656 C 261.066406 219.722656 264.199219 220.363281 266.167969 221.636719 C 268.132812 222.910156 269.125 225.050781 269.125 228.070312 C 269.125 231.082031 268.140625 233.261719 266.167969 234.59375 C 264.199219 235.929688 261.066406 236.597656 256.78125 236.597656 Z M 18.019531 236.597656 " fill-opacity="1" fill-rule="evenodd"></path></g></svg></svg></g></svg>